<svg xmlns="http://www.w3.org/2000/svg" viewBox="19 19 486 714"><path fill="#9a9a9a" fill-rule="evenodd" d="M174.4 726.4C175.7 725.2 176.0 722.3 176.0 711.7C176.0 703.1 176.5 697.1 177.4 694.5C178.4 691.7 179.0 682.3 179.5 664.0C180.0 646.4 180.7 636.5 181.6 634.5C182.3 632.7 183.1 623.9 183.6 612.5C184.0 600.6 184.8 592.3 185.6 590.3C186.4 588.5 187.2 581.1 187.6 572.8C187.9 564.9 188.8 556.9 189.5 555.0C190.2 553.1 191.1 545.6 191.5 538.5C191.9 531.4 192.8 523.9 193.5 521.9C194.2 519.9 195.1 512.7 195.5 505.9C196.0 499.1 196.9 492.2 197.6 490.5C198.3 488.8 199.2 482.5 199.5 476.5C199.9 470.4 200.9 464.3 201.6 462.9C202.3 461.5 203.2 456.1 203.6 450.9C204.0 445.7 204.8 440.4 205.5 439.0C206.2 437.6 207.1 432.2 207.5 427.0C207.9 421.8 208.8 416.4 209.5 415.0C210.3 413.6 211.2 409.1 211.6 405.0C212.0 400.9 212.9 396.1 213.6 394.4C214.3 392.8 215.2 387.4 215.5 382.4C215.9 377.4 216.9 372.5 217.7 371.2C218.5 369.9 219.4 365.4 219.7 361.2C220.0 356.9 220.8 352.5 221.6 351.4C222.3 350.2 223.2 346.8 223.5 343.9C223.9 340.9 224.8 336.7 225.6 334.5C226.4 332.3 227.4 327.4 227.9 323.5C228.4 319.6 229.5 314.7 230.4 312.5C231.2 310.3 232.0 306.9 232.0 305.0C232.1 300.6 236.0 292.5 238.0 292.5C240.2 292.5 240.5 301.1 238.5 305.0C237.5 306.9 236.6 311.9 236.3 317.3C236.0 322.4 235.1 327.7 234.3 329.2C233.6 330.8 232.7 336.9 232.3 343.2C232.0 349.6 231.1 355.7 230.3 357.2C229.6 358.8 228.7 364.9 228.3 371.2C228.0 377.4 227.1 383.7 226.4 385.1C225.6 386.8 224.8 393.6 224.4 403.1C224.0 413.0 223.2 419.5 222.3 421.2C221.5 422.9 220.7 429.0 220.4 436.7C220.1 443.8 219.2 451.1 218.5 453.0C217.8 455.0 216.9 463.7 216.5 473.0C216.1 482.1 215.2 491.7 214.4 494.4C213.6 497.2 212.8 507.0 212.4 518.4C212.0 530.1 211.3 539.1 210.4 541.7C209.5 544.5 208.9 553.8 208.5 569.2C208.1 584.9 207.4 594.1 206.4 597.5C205.4 601.1 204.7 613.1 204.0 641.5C203.4 663.0 202.5 689.8 201.9 701.2C200.6 723.8 200.9 726.5 204.2 727.4C207.9 728.3 394.1 728.0 398.0 727.1C401.5 726.2 404.1 725.3 413.5 722.0C419.7 719.8 427.1 717.3 433.0 715.5C442.7 712.5 447.6 710.8 450.5 709.5C452.1 708.8 455.3 707.7 457.5 707.2C463.0 705.7 470.9 703.1 474.8 701.4C476.6 700.6 478.9 700.0 479.8 700.0C482.3 700.0 495.2 693.6 497.2 691.4C501.2 686.8 501.5 667.0 497.6 660.8C496.9 659.5 495.9 655.4 495.6 651.6C495.2 647.8 494.3 643.3 493.6 641.5C492.8 639.8 491.9 635.9 491.5 632.9C491.1 629.9 490.2 626.4 489.5 625.0C488.8 623.6 487.9 620.0 487.5 617.0C487.1 614.0 486.2 610.4 485.5 609.0C484.8 607.6 483.9 604.7 483.6 602.6C483.2 600.5 482.3 597.8 481.5 596.6C480.8 595.4 480.0 591.9 479.6 588.7C479.3 585.5 478.4 581.9 477.6 580.7C476.8 579.5 475.9 576.1 475.6 573.1C475.2 570.1 474.3 566.5 473.6 565.1C472.9 563.7 471.9 560.7 471.6 558.6C471.2 556.4 470.2 553.7 469.4 552.6C468.6 551.5 468.0 549.4 468.0 548.0C468.0 546.6 467.2 543.8 466.1 541.8C465.1 539.8 464.0 536.0 463.7 533.3C463.4 530.6 462.5 526.8 461.6 524.9C459.7 520.4 457.1 512.6 455.8 507.0C455.2 504.5 454.2 501.6 453.5 500.5C452.8 499.4 451.9 496.7 451.5 494.6C451.2 492.5 450.3 489.8 449.5 488.6C448.8 487.4 448.0 484.9 447.6 483.0C447.3 481.1 446.4 478.1 445.6 476.5C443.9 472.8 441.3 465.1 439.5 458.8C438.7 456.2 436.8 451.2 435.2 447.8C433.5 444.3 431.9 439.9 431.5 438.0C431.1 436.1 430.2 433.6 429.5 432.5C428.8 431.4 427.9 428.9 427.5 427.0C427.1 425.1 426.2 422.4 425.4 421.0C423.0 416.4 419.0 407.3 419.0 406.3C419.0 405.7 418.3 404.7 417.5 404.0C416.7 403.3 416.0 401.6 416.0 400.1C416.0 398.7 414.8 395.2 413.5 392.5C412.1 389.8 411.0 387.0 411.0 386.4C411.0 385.8 410.3 384.7 409.5 384.0C408.7 383.3 408.0 381.8 408.0 380.7C408.0 378.3 405.9 373.6 392.3 346.5C386.6 334.9 380.6 323.9 379.0 321.9C377.4 319.9 375.8 317.1 375.4 315.6C375.1 314.2 374.4 312.7 373.9 312.4C373.4 312.1 372.4 310.4 371.6 308.6C370.9 306.8 368.9 303.8 367.3 301.9C365.7 300.0 363.8 297.1 363.1 295.3C362.4 293.6 360.9 291.3 359.8 290.3C358.7 289.3 356.8 286.5 355.5 284.0C354.2 281.5 352.2 278.6 351.0 277.5C349.8 276.4 348.2 274.1 347.5 272.3C346.7 270.5 344.1 266.9 341.7 264.3C339.3 261.6 336.7 258.4 336.0 257.0C328.0 241.7 317.3 239.1 264.0 239.1C233.5 239.0 207.2 240.7 203.0 242.9C197.7 245.8 193.0 249.8 193.0 251.7C193.0 252.4 190.6 255.7 187.6 258.9C184.6 262.2 181.4 266.3 180.4 268.2C179.5 270.0 176.7 273.7 174.2 276.5C171.8 279.2 169.4 282.5 168.9 283.8C168.4 285.1 166.7 287.8 165.0 289.8C163.4 291.8 160.4 296.6 158.4 300.5C156.4 304.4 153.9 308.4 152.9 309.5C151.3 311.4 143.5 325.3 140.9 331.0C140.3 332.4 139.4 334.2 138.9 335.0C138.4 335.8 137.5 337.6 136.9 339.0C136.3 340.4 135.4 342.2 134.9 343.0C134.4 343.8 133.5 345.6 133.0 347.0C132.4 348.4 131.5 350.2 131.0 351.0C130.0 352.5 128.6 355.3 127.6 358.0C127.3 358.8 126.6 360.2 126.0 361.0C123.4 365.1 112.7 388.9 112.3 391.7C112.0 393.5 111.1 395.5 110.4 396.1C109.6 396.7 109.0 397.8 109.0 398.4C109.0 399.0 107.2 403.1 105.1 407.5C103.0 411.9 100.9 417.0 100.6 418.7C100.2 420.4 99.0 423.5 97.9 425.6C96.9 427.7 96.0 430.3 96.0 431.3C96.0 432.3 95.2 434.8 94.1 436.8C90.4 444.1 89.0 447.5 88.4 450.8C88.0 452.6 86.9 455.8 85.9 457.8C84.8 459.8 84.0 462.5 84.0 463.9C84.0 465.2 83.4 467.1 82.6 467.9C81.1 469.7 74.5 487.9 72.8 495.0C72.2 497.5 71.1 500.4 70.4 501.5C69.7 502.6 68.8 505.9 68.4 508.8C68.0 511.7 66.9 515.8 65.9 517.8C64.8 519.8 64.0 522.5 64.0 523.7C64.0 525.0 63.3 527.1 62.5 528.4C61.7 529.6 60.6 532.6 60.1 535.1C59.6 537.5 58.5 541.3 57.6 543.5C56.8 545.7 56.1 549.0 56.0 550.8C56.0 552.6 55.3 555.1 54.5 556.4C53.7 557.6 52.6 560.6 52.1 563.1C51.6 565.5 50.5 569.3 49.6 571.5C48.8 573.7 48.1 577.1 48.0 579.0C48.0 580.9 47.3 583.3 46.5 584.3C45.8 585.4 44.8 588.1 44.5 590.3C44.1 592.6 43.2 595.6 42.5 597.0C41.8 598.4 40.9 602.0 40.5 605.0C40.1 608.0 39.2 611.7 38.4 613.1C37.7 614.5 36.8 618.1 36.4 621.1C36.0 624.1 35.3 627.4 34.7 628.5C34.1 629.6 33.1 633.4 32.4 637.0C30.5 646.3 28.2 655.8 26.4 661.0C24.7 665.9 23.4 682.3 24.4 686.3C25.1 689.4 36.8 698.0 42.5 699.5C44.7 700.2 49.2 701.9 52.5 703.5C58.8 706.4 64.4 708.2 74.5 710.6C77.8 711.4 81.8 712.6 83.5 713.1C97.8 718.2 102.2 714.1 103.6 694.7C104.0 689.6 104.9 684.3 105.6 682.9C106.3 681.4 107.2 677.2 107.5 673.4C107.9 669.6 108.7 664.9 109.5 663.0C110.2 661.1 111.1 656.4 111.5 652.5C111.9 648.6 112.8 644.1 113.5 642.3C114.2 640.6 115.1 636.1 115.5 632.4C116.0 628.6 116.9 624.2 117.6 622.4C118.3 620.7 119.2 616.2 119.6 612.4C120.0 608.6 120.8 604.4 121.5 603.0C122.2 601.6 123.0 598.1 123.4 595.1C123.8 592.1 124.7 588.2 125.5 586.4C126.2 584.6 127.1 580.1 127.5 576.3C127.9 572.6 128.8 568.5 129.6 567.3C130.3 566.1 131.3 562.5 131.6 559.3C132.0 556.1 132.8 552.4 133.5 551.0C134.2 549.6 135.1 546.2 135.5 543.5C135.8 540.7 136.8 536.9 137.6 535.0C138.3 533.1 139.4 529.0 139.9 526.0C140.4 523.0 141.5 518.7 142.4 516.5C143.2 514.3 143.9 510.9 144.0 508.9C144.0 507.0 144.7 504.5 145.5 503.4C146.3 502.4 147.0 500.6 147.0 499.5C147.1 498.4 147.8 495.7 148.6 493.5C149.5 491.3 150.8 486.6 151.5 483.0C152.2 479.4 153.5 474.7 154.4 472.5C155.2 470.3 155.9 466.9 156.0 465.0C156.0 463.0 156.6 460.5 157.4 459.5C158.2 458.4 159.2 455.4 159.7 453.0C160.4 449.5 161.0 448.5 162.5 448.5C165.0 448.5 164.8 464.5 162.4 469.3C161.6 470.8 160.7 475.1 160.4 478.8C160.1 482.5 159.2 487.2 158.4 489.3C157.6 491.3 156.7 496.9 156.4 501.8C156.0 506.6 155.1 511.7 154.4 513.1C153.7 514.5 152.8 519.9 152.4 525.1C152.0 530.3 151.1 535.7 150.4 537.2C149.6 538.7 148.7 544.1 148.4 549.2C148.0 554.3 147.1 559.6 146.4 561.0C145.7 562.4 144.8 566.9 144.4 571.0C144.0 575.1 143.1 579.9 142.4 581.6C141.7 583.3 140.8 589.6 140.4 595.6C140.0 601.6 139.1 607.6 138.4 609.0C137.7 610.4 136.9 616.5 136.5 622.5C136.1 628.6 135.2 635.3 134.5 637.5C133.8 639.8 132.9 647.0 132.5 653.5C132.1 660.1 131.2 667.3 130.5 669.5C129.8 671.8 128.9 679.0 128.5 685.5C128.1 692.1 127.2 699.3 126.5 701.5C122.3 713.9 123.8 723.0 130.5 726.5C135.0 728.7 172.1 728.7 174.4 726.4ZM384.7 551.3C384.5 550.9 383.9 548.7 383.5 546.6C383.2 544.4 382.2 541.7 381.4 540.6C380.6 539.5 380.0 537.5 380.0 536.2C380.0 535.0 379.2 532.3 378.3 530.2C377.4 528.2 376.1 523.8 375.4 520.5C374.3 515.1 373.4 511.9 369.4 501.0C367.1 494.6 364.9 487.5 363.7 483.0C363.0 480.5 361.9 477.5 361.2 476.3C360.6 475.1 360.0 473.1 360.0 471.8C360.0 470.5 359.1 467.7 358.0 465.5C356.9 463.3 356.0 460.6 356.0 459.5C356.0 458.4 355.1 455.7 354.0 453.5C352.9 451.3 352.0 448.6 352.0 447.5C352.0 446.4 351.1 443.7 350.0 441.5C348.9 439.3 348.0 436.2 348.0 434.5C347.9 432.9 347.2 429.7 346.4 427.5C345.5 425.3 344.4 421.5 343.8 419.0C343.2 416.5 342.2 413.6 341.5 412.5C340.8 411.4 339.9 408.7 339.5 406.6C339.1 404.4 338.2 401.7 337.4 400.6C336.6 399.5 336.0 397.4 336.0 396.0C336.0 394.6 335.1 391.8 334.0 389.7C332.9 387.7 332.0 385.0 332.0 383.7C332.0 382.5 331.1 379.7 330.0 377.5C328.9 375.3 328.0 372.6 328.0 371.5C328.0 370.4 327.1 367.7 326.0 365.5C324.9 363.3 324.0 360.7 324.0 359.5C324.0 358.4 323.1 355.8 322.0 353.7C320.9 351.7 320.0 349.0 320.0 347.7C320.0 346.5 319.2 343.8 318.1 341.7C317.1 339.7 315.9 336.4 315.5 334.4C315.2 332.4 314.3 329.8 313.5 328.6C312.8 327.4 311.9 324.7 311.5 322.6C311.2 320.5 310.3 317.8 309.5 316.6C308.8 315.4 307.9 312.9 307.5 311.0C307.1 309.1 305.2 304.3 303.4 300.3C298.0 288.9 300.1 282.3 305.7 293.0C307.0 295.4 308.9 298.4 310.0 299.5C311.0 300.6 312.2 302.7 312.5 304.2C312.9 305.7 313.8 307.4 314.6 308.1C315.4 308.7 316.0 310.0 316.0 311.0C316.0 311.9 316.9 313.9 318.0 315.3C319.1 316.7 320.0 318.5 320.0 319.3C320.0 320.1 320.8 321.8 321.8 323.1C322.9 324.4 324.0 326.9 324.3 328.6C324.6 330.3 327.6 337.4 330.9 344.3C334.3 351.2 337.0 357.3 337.0 357.8C337.0 358.3 337.7 359.3 338.5 360.0C339.3 360.7 340.0 362.4 340.0 363.9C340.0 365.3 340.8 368.1 341.9 370.0C342.9 371.9 344.1 375.1 344.5 377.0C344.9 378.9 346.8 383.7 348.6 387.7C350.5 391.6 352.0 395.7 352.0 396.7C352.0 397.7 352.9 400.3 354.0 402.5C355.1 404.7 356.0 407.4 356.0 408.5C356.0 409.6 356.8 412.2 357.9 414.3C358.9 416.3 360.1 420.1 360.5 422.7C360.9 425.4 361.8 428.9 362.4 430.5C363.1 432.1 364.0 435.3 364.4 437.4C364.8 439.5 365.7 442.2 366.5 443.4C367.2 444.6 368.1 448.0 368.5 451.0C368.9 454.0 369.8 457.7 370.6 459.1C371.3 460.5 372.2 464.1 372.6 467.1C373.0 470.1 373.8 473.6 374.5 475.0C375.2 476.4 376.0 480.1 376.4 483.3C376.7 486.5 377.6 490.1 378.4 491.3C379.1 492.5 380.0 496.8 380.4 500.8C380.7 504.9 381.6 509.4 382.4 510.8C383.1 512.3 384.1 517.1 384.5 521.4C384.9 525.8 385.8 530.3 386.5 531.4C388.7 534.8 388.9 551.4 386.8 551.8C385.9 552.0 385.0 551.7 384.7 551.3ZM220.1 219.6C225.4 218.9 230.7 217.7 232.1 217.0C236.0 214.8 288.8 215.3 293.0 217.5C295.2 218.6 299.8 219.3 307.4 219.7C322.3 220.4 323.0 219.9 323.7 207.7C324.3 198.2 320.5 192.2 311.5 188.4C307.8 186.9 253.5 132.7 251.2 128.3C250.4 126.8 246.9 122.5 243.4 118.7C233.4 108.2 234.9 105.4 245.5 114.5C249.1 117.5 252.5 120.0 253.0 120.0C253.5 120.0 257.5 123.2 261.7 127.1C266.0 131.0 270.9 134.9 272.5 135.7C274.1 136.6 284.5 146.1 295.5 157.0C306.5 167.8 317.1 177.5 319.0 178.5C320.9 179.5 323.6 181.1 324.9 182.1C330.0 186.1 334.7 181.2 344.2 162.2C351.5 147.5 351.5 147.5 351.5 130.0C351.5 112.5 351.5 112.5 345.8 101.2C342.1 93.9 339.8 88.0 339.4 84.7C339.0 81.8 338.2 78.4 337.5 77.0C336.7 75.5 336.0 67.2 335.6 55.5C334.8 35.2 332.9 26.8 328.8 25.4C326.0 24.6 322.1 28.1 320.9 32.5C320.4 34.7 319.2 38.5 318.4 41.0C317.6 43.5 316.7 49.3 316.3 54.0C316.0 58.7 315.1 63.6 314.4 65.0C313.7 66.4 312.8 70.8 312.4 74.8C311.6 83.9 310.1 85.8 300.8 90.3C296.8 92.2 290.9 96.1 287.7 98.9C284.5 101.7 281.5 104.0 281.0 104.0C280.4 104.0 277.6 106.2 274.6 108.9C263.1 119.4 261.4 119.4 250.2 108.9C246.1 105.1 241.3 101.2 239.6 100.3C237.9 99.4 234.9 97.4 232.9 95.9C230.9 94.3 228.7 93.0 228.1 93.0C222.3 93.0 213.2 78.7 211.5 67.0C210.8 62.3 209.8 57.1 209.2 55.5C208.6 53.9 207.7 49.4 207.2 45.5C205.0 29.6 200.0 22.8 194.3 28.2C192.3 30.1 192.0 31.3 192.0 38.2C192.0 42.6 191.5 47.0 190.9 48.2C190.3 49.3 189.4 56.3 188.8 63.8C188.3 71.4 187.2 79.1 186.5 81.0C185.7 82.9 184.8 86.1 184.4 88.0C184.1 89.9 183.1 92.4 182.4 93.5C181.6 94.6 181.0 96.4 181.0 97.5C181.0 98.6 179.1 103.1 176.8 107.5C170.1 120.3 170.1 137.8 176.9 152.4C180.7 160.8 184.3 168.1 186.0 171.0C186.5 171.8 189.0 176.8 191.5 182.0C194.1 187.2 197.0 193.1 198.0 195.0C198.9 196.9 200.0 200.7 200.4 203.5C200.9 206.2 201.8 209.7 202.6 211.2C203.4 212.7 204.0 214.7 204.0 215.6C204.0 220.8 206.7 221.5 220.1 219.6Z"/></svg>