<svg xmlns="http://www.w3.org/2000/svg" viewBox="0 0 304 424"><path fill="#9a9a9a" fill-rule="evenodd" d="M2.2 421.4C-1.0 417.9 -1.2 401.2 2.0 399.2C3.4 398.3 4.0 396.9 4.0 394.2C4.0 392.1 4.9 389.4 6.0 388.0C7.5 386.0 8.0 383.9 8.0 378.0C8.0 372.1 8.5 370.0 10.0 368.0C11.1 366.6 12.0 363.9 12.0 362.0C12.0 360.1 12.9 357.4 14.0 356.0C15.4 354.2 16.0 351.9 16.0 348.0C16.0 344.1 16.6 341.8 18.0 340.0C19.4 338.2 20.0 335.9 20.0 332.0C20.0 328.1 20.6 325.8 22.0 324.0C23.1 322.6 24.0 319.9 24.0 318.0C24.0 316.1 24.9 313.4 26.0 312.0C27.1 310.6 28.0 307.9 28.0 306.0C28.0 304.1 28.9 301.4 30.0 300.0C31.1 298.6 32.0 295.9 32.0 294.0C32.0 292.1 32.9 289.4 34.0 288.0C35.1 286.6 36.0 283.9 36.0 282.0C36.0 280.1 36.9 277.4 38.0 276.0C39.1 274.6 40.0 272.8 40.0 272.0C40.0 271.2 40.9 269.4 42.0 268.0C43.1 266.6 44.0 263.9 44.0 262.0C44.0 260.1 44.9 257.4 46.0 256.0C47.1 254.6 48.0 251.9 48.0 250.0C48.0 248.1 48.9 245.4 50.0 244.0C51.1 242.6 52.0 240.8 52.0 240.0C52.0 239.2 52.9 237.4 54.0 236.0C55.1 234.6 56.0 232.8 56.0 232.0C56.0 231.2 56.9 229.4 58.0 228.0C59.1 226.6 60.0 223.9 60.0 222.0C60.0 220.1 60.9 217.4 62.0 216.0C63.1 214.6 64.0 212.8 64.0 212.0C64.0 211.2 64.9 209.4 66.0 208.0C67.1 206.6 68.0 204.8 68.0 204.0C68.0 203.2 68.9 201.4 70.0 200.0C71.1 198.6 72.0 196.8 72.0 196.0C72.0 195.2 72.9 193.4 74.0 192.0C75.1 190.6 76.0 188.9 76.0 188.1C76.0 187.4 77.8 184.6 80.0 182.0C82.2 179.4 84.0 176.7 84.0 176.0C84.0 175.3 85.8 172.6 88.0 170.0C90.2 167.4 92.0 164.7 92.0 164.0C92.0 163.3 93.8 160.6 96.0 158.0C98.2 155.4 100.0 152.5 100.0 151.7C100.0 150.9 103.2 147.0 107.1 143.1L114.2 136.0L150.0 136.0L185.9 136.0L196.9 147.1C203.0 153.2 208.0 158.8 208.0 159.7C208.0 160.5 209.8 163.4 212.0 166.0C214.2 168.6 216.0 171.4 216.0 172.1C216.0 172.9 216.9 174.6 218.0 176.0C219.1 177.4 220.0 179.2 220.0 180.0C220.0 180.8 220.9 182.6 222.0 184.0C223.1 185.4 224.0 187.1 224.0 187.9C224.0 188.6 225.8 191.4 228.0 194.0C230.2 196.6 232.0 199.4 232.0 200.1C232.0 200.9 232.9 202.6 234.0 204.0C235.1 205.4 236.0 207.2 236.0 208.0C236.0 208.8 236.9 210.6 238.0 212.0C239.1 213.4 240.0 216.1 240.0 218.0C240.0 219.9 240.9 222.6 242.0 224.0C243.1 225.4 244.0 227.2 244.0 228.0C244.0 228.8 244.9 230.6 246.0 232.0C247.1 233.4 248.0 235.2 248.0 236.0C248.0 236.8 248.9 238.6 250.0 240.0C251.1 241.4 252.0 244.1 252.0 246.0C252.0 247.9 252.9 250.6 254.0 252.0C255.1 253.4 256.0 255.2 256.0 256.0C256.0 256.8 256.9 258.6 258.0 260.0C259.1 261.4 260.0 264.1 260.0 266.0C260.0 267.9 260.9 270.6 262.0 272.0C263.1 273.4 264.0 276.1 264.0 278.0C264.0 279.9 264.9 282.6 266.0 284.0C267.1 285.4 268.0 288.1 268.0 290.0C268.0 291.9 268.9 294.6 270.0 296.0C271.1 297.4 272.0 300.1 272.0 302.0C272.0 303.9 272.9 306.6 274.0 308.0C275.1 309.4 276.0 312.1 276.0 314.0C276.0 315.9 276.9 318.6 278.0 320.0C279.1 321.4 280.0 324.1 280.0 326.0C280.0 327.9 280.9 330.6 282.0 332.0C283.1 333.4 284.0 336.1 284.0 338.0C284.0 339.9 284.9 342.6 286.0 344.0C287.5 346.0 288.0 348.1 288.0 354.0C288.0 359.9 288.5 362.0 290.0 364.0C291.1 365.4 292.0 368.1 292.0 370.0C292.0 371.9 292.9 374.6 294.0 376.0C295.4 377.8 296.0 380.1 296.0 384.0C296.0 387.9 296.6 390.2 298.0 392.0C299.6 394.0 300.0 396.1 300.0 402.2C300.0 408.9 300.3 410.2 302.0 411.2C304.6 412.8 304.6 415.6 302.0 417.0C300.7 417.7 300.0 419.1 300.0 421.0L300.0 424.0L206.0 424.0L112.0 424.0L112.0 411.2C112.0 400.1 112.3 398.2 114.0 396.0C115.8 393.7 116.0 391.7 116.0 364.0C116.0 336.3 116.2 334.3 118.0 332.0C119.8 329.7 120.0 327.8 120.0 308.0C120.0 288.2 120.2 286.3 122.0 284.0C123.7 281.8 124.0 279.8 124.0 266.0C124.0 252.2 124.3 250.2 126.0 248.0C127.7 245.9 128.0 243.9 128.0 234.0C128.0 224.1 128.3 222.1 130.0 220.0C131.7 217.9 132.0 215.9 132.0 206.0C132.0 196.1 132.3 194.1 134.0 192.0C137.0 188.2 137.0 170.0 134.0 170.0C132.2 170.0 132.0 170.7 132.0 175.8C132.0 179.9 131.4 182.2 130.0 184.0C128.6 185.8 128.0 188.1 128.0 192.0C128.0 195.9 127.4 198.2 126.0 200.0C124.5 202.0 124.0 204.1 124.0 210.0C124.0 215.9 123.5 218.0 122.0 220.0C120.5 222.0 120.0 224.1 120.0 230.0C120.0 235.9 119.5 238.0 118.0 240.0C116.4 242.1 116.0 244.1 116.0 252.0C116.0 259.9 115.6 261.9 114.0 264.0C112.3 266.1 112.0 268.1 112.0 278.0C112.0 287.9 111.7 289.9 110.0 292.0C108.3 294.1 108.0 296.1 108.0 306.0C108.0 315.9 107.7 317.9 106.0 320.0C104.3 322.2 104.0 324.2 104.0 338.0C104.0 351.8 103.7 353.8 102.0 356.0C100.2 358.3 100.0 360.2 100.0 378.0C100.0 395.8 99.8 397.7 98.0 400.0C96.3 402.1 96.0 404.1 96.0 413.2L96.0 424.0L80.0 424.0C71.2 424.0 64.0 423.6 64.0 423.1C64.0 422.7 64.9 421.1 66.0 419.7C67.8 417.5 68.0 415.7 68.0 403.8C68.0 392.1 68.3 390.2 70.0 388.0C71.7 385.9 72.0 383.9 72.0 374.0C72.0 364.1 72.3 362.1 74.0 360.0C75.6 357.9 76.0 355.9 76.0 348.0C76.0 340.1 76.4 338.1 78.0 336.0C79.6 333.9 80.0 331.9 80.0 324.0C80.0 316.1 80.4 314.1 82.0 312.0C83.5 310.0 84.0 307.9 84.0 302.0C84.0 296.1 84.5 294.0 86.0 292.0C89.0 288.2 89.0 270.0 86.0 270.0C84.4 270.0 84.0 270.7 84.0 273.8C84.0 275.9 83.1 278.6 82.0 280.0C80.6 281.8 80.0 284.1 80.0 288.0C80.0 291.9 79.4 294.2 78.0 296.0C76.6 297.8 76.0 300.1 76.0 304.0C76.0 307.9 75.4 310.2 74.0 312.0C72.6 313.8 72.0 316.1 72.0 320.0C72.0 323.9 71.4 326.2 70.0 328.0C68.6 329.8 68.0 332.1 68.0 336.0C68.0 339.9 67.4 342.2 66.0 344.0C64.5 346.0 64.0 348.1 64.0 354.0C64.0 359.9 63.5 362.0 62.0 364.0C60.6 365.8 60.0 368.1 60.0 372.0C60.0 375.9 59.4 378.2 58.0 380.0C56.5 382.0 56.0 384.1 56.0 390.0C56.0 395.9 55.5 398.0 54.0 400.0C52.3 402.1 52.0 404.1 52.0 413.2L52.0 424.0L28.2 423.9L4.5 423.8L2.2 421.4ZM232.0 328.2C232.0 324.1 231.4 321.8 230.0 320.0C228.5 318.0 228.0 315.9 228.0 310.0C228.0 304.1 227.5 302.0 226.0 300.0C224.5 298.0 224.0 295.9 224.0 290.0C224.0 284.1 223.5 282.0 222.0 280.0C220.9 278.6 220.0 275.9 220.0 274.0C220.0 272.1 219.1 269.4 218.0 268.0C216.6 266.2 216.0 263.9 216.0 260.0C216.0 256.1 215.4 253.8 214.0 252.0C212.9 250.6 212.0 247.9 212.0 246.0C212.0 244.1 211.1 241.4 210.0 240.0C208.9 238.6 208.0 235.9 208.0 234.0C208.0 232.1 207.1 229.4 206.0 228.0C204.9 226.6 204.0 224.8 204.0 224.0C204.0 223.2 203.1 221.4 202.0 220.0C200.9 218.6 200.0 215.9 200.0 214.0C200.0 212.1 199.1 209.4 198.0 208.0C196.9 206.6 196.0 204.8 196.0 204.0C196.0 203.2 195.1 201.4 194.0 200.0C192.9 198.6 192.0 196.8 192.0 196.0C192.0 195.2 191.1 193.4 190.0 192.0C188.9 190.6 188.0 188.8 188.0 188.0C188.0 187.2 187.1 185.4 186.0 184.0C184.9 182.6 184.0 179.9 184.0 177.8C184.0 174.3 179.5 168.0 176.9 168.0C175.1 168.0 176.0 177.4 178.0 180.0C179.1 181.4 180.0 183.2 180.0 184.0C180.0 184.8 180.9 186.6 182.0 188.0C183.1 189.4 184.0 192.1 184.0 194.0C184.0 195.9 184.9 198.6 186.0 200.0C187.1 201.4 188.0 204.1 188.0 206.0C188.0 207.9 188.9 210.6 190.0 212.0C191.1 213.4 192.0 216.1 192.0 218.0C192.0 219.9 192.9 222.6 194.0 224.0C195.1 225.4 196.0 228.1 196.0 230.0C196.0 231.9 196.9 234.6 198.0 236.0C199.1 237.4 200.0 240.1 200.0 242.0C200.0 243.9 200.9 246.6 202.0 248.0C203.1 249.4 204.0 252.1 204.0 254.0C204.0 255.9 204.9 258.6 206.0 260.0C207.4 261.8 208.0 264.1 208.0 268.0C208.0 271.9 208.6 274.2 210.0 276.0C211.1 277.4 212.0 280.1 212.0 282.0C212.0 283.9 212.9 286.6 214.0 288.0C215.1 289.4 216.0 292.1 216.0 294.0C216.0 295.9 216.9 298.6 218.0 300.0C219.1 301.4 220.0 304.1 220.0 306.0C220.0 307.9 220.9 310.6 222.0 312.0C223.1 313.4 224.0 316.1 224.0 318.0C224.0 319.9 224.9 322.6 226.0 324.0C227.1 325.4 228.0 328.1 228.0 330.2C228.0 333.3 228.4 334.0 230.0 334.0C231.8 334.0 232.0 333.3 232.0 328.2ZM115.2 120.7C112.9 118.3 112.0 116.5 112.0 114.0C112.0 112.1 111.1 109.4 110.0 108.0C108.9 106.6 108.0 103.9 108.0 102.0C108.0 100.1 107.1 97.4 106.0 96.0C104.9 94.6 104.0 92.8 104.0 92.0C104.0 91.2 103.1 89.4 102.0 88.0C100.9 86.6 100.0 84.8 100.0 84.0C100.0 83.2 99.1 81.4 98.0 80.0C96.9 78.6 96.0 75.9 96.0 74.0C96.0 72.1 95.1 69.4 94.0 68.0C91.5 64.8 91.5 59.2 94.0 56.0C95.1 54.6 96.0 52.8 96.0 52.0C96.0 51.2 96.9 49.4 98.0 48.0C99.1 46.6 100.0 44.8 100.0 44.0C100.0 43.2 100.9 41.4 102.0 40.0C103.7 37.9 104.0 35.9 104.0 26.2C104.0 17.7 104.4 14.3 105.6 12.5C106.8 10.7 106.9 9.7 106.0 8.0C105.1 6.4 105.3 5.3 106.7 3.0C110.7 -3.8 116.0 2.6 116.0 14.2C116.0 19.9 116.5 22.0 118.0 24.0C119.1 25.4 120.0 28.1 120.0 30.1C120.0 33.1 120.9 34.6 125.1 38.9C128.0 41.7 130.9 44.0 131.7 44.0C133.8 44.0 141.0 50.1 142.7 53.3C144.1 56.0 144.3 56.1 151.2 55.8C156.8 55.6 158.5 55.1 159.1 53.8C159.6 52.8 160.4 51.2 160.9 50.2C161.3 49.3 162.6 48.3 163.6 48.1C164.6 47.9 167.6 46.0 170.1 43.9C172.7 41.7 175.4 40.0 176.2 40.0C177.0 40.0 179.0 38.5 180.8 36.7C183.8 33.6 184.0 33.0 184.0 26.0C184.0 20.1 184.5 18.0 186.0 16.0C187.5 14.1 188.0 11.9 188.0 6.8L188.0 0.0L192.0 0.0L196.0 0.0L196.0 12.8C196.0 23.9 196.3 25.8 198.0 28.0C199.4 29.8 200.0 32.1 200.0 36.0C200.0 39.9 200.6 42.2 202.0 44.0C203.1 45.4 204.0 48.1 204.0 50.0C204.0 51.9 204.9 54.6 206.0 56.0C207.5 58.0 208.0 60.1 208.0 66.0C208.0 71.9 207.5 74.0 206.0 76.0C204.9 77.4 204.0 80.0 204.0 81.9C204.0 84.3 202.9 86.5 200.0 90.0C197.8 92.6 196.0 95.4 196.0 96.2C196.0 98.1 194.0 100.0 191.9 100.0C191.0 100.0 182.9 92.8 174.0 84.0C165.1 75.2 157.1 68.0 156.3 68.0C154.2 68.0 147.0 61.9 145.4 58.8C144.2 56.4 143.3 56.0 139.9 56.0C136.1 56.0 136.0 56.1 137.1 58.2C138.9 61.5 185.9 108.0 187.5 108.0C190.0 108.0 191.1 110.5 189.5 112.6C188.7 113.6 188.0 116.1 188.0 118.0C188.0 120.0 187.5 122.1 186.8 122.8C185.0 124.6 178.8 124.2 176.0 122.0C173.7 120.2 171.8 120.0 150.0 120.0C128.2 120.0 126.3 120.2 124.0 122.0C120.5 124.7 118.9 124.5 115.2 120.7Z"/></svg>